<mxfile host="app.diagrams.net" modified="2023-08-14T18:09:06.032Z" agent="Mozilla/5.0 (Windows NT 10.0; Win64; x64) AppleWebKit/537.36 (KHTML, like Gecko) Chrome/115.0.0.0 Safari/537.36" etag="xwUZH6WZZQpARCY7NCcJ" version="21.6.7" type="device">
  <diagram name="PÃ¡gina-1" id="Bhy_pzX2elhrO49gIw-j">
    <mxGraphModel dx="1877" dy="574" grid="1" gridSize="10" guides="1" tooltips="1" connect="1" arrows="1" fold="1" page="1" pageScale="1" pageWidth="827" pageHeight="1169" math="0" shadow="0">
      <root>
        <mxCell id="0" />
        <mxCell id="1" parent="0" />
        <mxCell id="WSUVS9vtkYRrzz9PxhxV-9" style="edgeStyle=orthogonalEdgeStyle;rounded=0;orthogonalLoop=1;jettySize=auto;html=1;entryX=1;entryY=0.5;entryDx=0;entryDy=0;endArrow=none;endFill=0;" edge="1" parent="1" source="WSUVS9vtkYRrzz9PxhxV-1" target="WSUVS9vtkYRrzz9PxhxV-6">
          <mxGeometry relative="1" as="geometry" />
        </mxCell>
        <mxCell id="WSUVS9vtkYRrzz9PxhxV-1" value="Usuario" style="rounded=0;whiteSpace=wrap;html=1;" vertex="1" parent="1">
          <mxGeometry x="334" y="60" width="160" height="80" as="geometry" />
        </mxCell>
        <mxCell id="WSUVS9vtkYRrzz9PxhxV-3" style="edgeStyle=orthogonalEdgeStyle;rounded=0;orthogonalLoop=1;jettySize=auto;html=1;entryX=0.5;entryY=1;entryDx=0;entryDy=0;endArrow=none;endFill=0;" edge="1" parent="1" source="WSUVS9vtkYRrzz9PxhxV-2" target="WSUVS9vtkYRrzz9PxhxV-1">
          <mxGeometry relative="1" as="geometry" />
        </mxCell>
        <mxCell id="WSUVS9vtkYRrzz9PxhxV-2" value="" style="rhombus;whiteSpace=wrap;html=1;" vertex="1" parent="1">
          <mxGeometry x="374" y="220" width="80" height="80" as="geometry" />
        </mxCell>
        <mxCell id="WSUVS9vtkYRrzz9PxhxV-5" style="edgeStyle=orthogonalEdgeStyle;rounded=0;orthogonalLoop=1;jettySize=auto;html=1;entryX=0.5;entryY=1;entryDx=0;entryDy=0;endArrow=none;endFill=0;" edge="1" parent="1" source="WSUVS9vtkYRrzz9PxhxV-4" target="WSUVS9vtkYRrzz9PxhxV-2">
          <mxGeometry relative="1" as="geometry" />
        </mxCell>
        <mxCell id="WSUVS9vtkYRrzz9PxhxV-20" style="edgeStyle=orthogonalEdgeStyle;rounded=0;orthogonalLoop=1;jettySize=auto;html=1;entryX=0;entryY=0.5;entryDx=0;entryDy=0;endArrow=none;endFill=0;" edge="1" parent="1" source="WSUVS9vtkYRrzz9PxhxV-4" target="WSUVS9vtkYRrzz9PxhxV-19">
          <mxGeometry relative="1" as="geometry" />
        </mxCell>
        <mxCell id="WSUVS9vtkYRrzz9PxhxV-4" value="" style="rounded=0;whiteSpace=wrap;html=1;" vertex="1" parent="1">
          <mxGeometry x="354" y="390" width="120" height="60" as="geometry" />
        </mxCell>
        <mxCell id="WSUVS9vtkYRrzz9PxhxV-6" value="" style="rhombus;whiteSpace=wrap;html=1;" vertex="1" parent="1">
          <mxGeometry x="170" y="60" width="80" height="80" as="geometry" />
        </mxCell>
        <mxCell id="WSUVS9vtkYRrzz9PxhxV-8" style="edgeStyle=orthogonalEdgeStyle;rounded=0;orthogonalLoop=1;jettySize=auto;html=1;entryX=0;entryY=0.5;entryDx=0;entryDy=0;endArrow=none;endFill=0;" edge="1" parent="1" source="WSUVS9vtkYRrzz9PxhxV-7" target="WSUVS9vtkYRrzz9PxhxV-6">
          <mxGeometry relative="1" as="geometry" />
        </mxCell>
        <mxCell id="WSUVS9vtkYRrzz9PxhxV-7" value="" style="rounded=0;whiteSpace=wrap;html=1;" vertex="1" parent="1">
          <mxGeometry x="-40" y="70" width="120" height="60" as="geometry" />
        </mxCell>
        <mxCell id="WSUVS9vtkYRrzz9PxhxV-13" style="edgeStyle=orthogonalEdgeStyle;rounded=0;orthogonalLoop=1;jettySize=auto;html=1;entryX=1;entryY=0.5;entryDx=0;entryDy=0;endArrow=none;endFill=0;" edge="1" parent="1" source="WSUVS9vtkYRrzz9PxhxV-10" target="WSUVS9vtkYRrzz9PxhxV-1">
          <mxGeometry relative="1" as="geometry" />
        </mxCell>
        <mxCell id="WSUVS9vtkYRrzz9PxhxV-10" value="" style="rhombus;whiteSpace=wrap;html=1;" vertex="1" parent="1">
          <mxGeometry x="590" y="60" width="80" height="80" as="geometry" />
        </mxCell>
        <mxCell id="WSUVS9vtkYRrzz9PxhxV-12" value="" style="edgeStyle=orthogonalEdgeStyle;rounded=0;orthogonalLoop=1;jettySize=auto;html=1;endArrow=none;endFill=0;" edge="1" parent="1" source="WSUVS9vtkYRrzz9PxhxV-11" target="WSUVS9vtkYRrzz9PxhxV-10">
          <mxGeometry relative="1" as="geometry" />
        </mxCell>
        <mxCell id="WSUVS9vtkYRrzz9PxhxV-17" style="edgeStyle=orthogonalEdgeStyle;rounded=0;orthogonalLoop=1;jettySize=auto;html=1;entryX=0.5;entryY=0;entryDx=0;entryDy=0;endArrow=none;endFill=0;" edge="1" parent="1" source="WSUVS9vtkYRrzz9PxhxV-11" target="WSUVS9vtkYRrzz9PxhxV-16">
          <mxGeometry relative="1" as="geometry" />
        </mxCell>
        <mxCell id="WSUVS9vtkYRrzz9PxhxV-11" value="" style="rounded=0;whiteSpace=wrap;html=1;" vertex="1" parent="1">
          <mxGeometry x="760" y="70" width="120" height="60" as="geometry" />
        </mxCell>
        <mxCell id="WSUVS9vtkYRrzz9PxhxV-18" style="edgeStyle=orthogonalEdgeStyle;rounded=0;orthogonalLoop=1;jettySize=auto;html=1;entryX=0.5;entryY=1;entryDx=0;entryDy=0;endArrow=none;endFill=0;" edge="1" parent="1" source="WSUVS9vtkYRrzz9PxhxV-15" target="WSUVS9vtkYRrzz9PxhxV-16">
          <mxGeometry relative="1" as="geometry" />
        </mxCell>
        <mxCell id="WSUVS9vtkYRrzz9PxhxV-21" style="edgeStyle=orthogonalEdgeStyle;rounded=0;orthogonalLoop=1;jettySize=auto;html=1;entryX=1;entryY=0.5;entryDx=0;entryDy=0;endArrow=none;endFill=0;" edge="1" parent="1" source="WSUVS9vtkYRrzz9PxhxV-15" target="WSUVS9vtkYRrzz9PxhxV-19">
          <mxGeometry relative="1" as="geometry" />
        </mxCell>
        <mxCell id="WSUVS9vtkYRrzz9PxhxV-28" style="edgeStyle=orthogonalEdgeStyle;rounded=0;orthogonalLoop=1;jettySize=auto;html=1;endArrow=none;endFill=0;" edge="1" parent="1" source="WSUVS9vtkYRrzz9PxhxV-15" target="WSUVS9vtkYRrzz9PxhxV-27">
          <mxGeometry relative="1" as="geometry" />
        </mxCell>
        <mxCell id="WSUVS9vtkYRrzz9PxhxV-15" value="" style="rounded=0;whiteSpace=wrap;html=1;" vertex="1" parent="1">
          <mxGeometry x="760" y="390" width="120" height="60" as="geometry" />
        </mxCell>
        <mxCell id="WSUVS9vtkYRrzz9PxhxV-16" value="" style="rhombus;whiteSpace=wrap;html=1;" vertex="1" parent="1">
          <mxGeometry x="780" y="220" width="80" height="80" as="geometry" />
        </mxCell>
        <mxCell id="WSUVS9vtkYRrzz9PxhxV-19" value="" style="rhombus;whiteSpace=wrap;html=1;" vertex="1" parent="1">
          <mxGeometry x="590" y="380" width="80" height="80" as="geometry" />
        </mxCell>
        <mxCell id="WSUVS9vtkYRrzz9PxhxV-24" style="edgeStyle=orthogonalEdgeStyle;rounded=0;orthogonalLoop=1;jettySize=auto;html=1;entryX=0.5;entryY=1;entryDx=0;entryDy=0;endArrow=none;endFill=0;" edge="1" parent="1" source="WSUVS9vtkYRrzz9PxhxV-22" target="WSUVS9vtkYRrzz9PxhxV-4">
          <mxGeometry relative="1" as="geometry" />
        </mxCell>
        <mxCell id="WSUVS9vtkYRrzz9PxhxV-25" style="edgeStyle=orthogonalEdgeStyle;rounded=0;orthogonalLoop=1;jettySize=auto;html=1;entryX=0.5;entryY=0;entryDx=0;entryDy=0;endArrow=none;endFill=0;" edge="1" parent="1" source="WSUVS9vtkYRrzz9PxhxV-22" target="WSUVS9vtkYRrzz9PxhxV-23">
          <mxGeometry relative="1" as="geometry" />
        </mxCell>
        <mxCell id="WSUVS9vtkYRrzz9PxhxV-22" value="" style="rhombus;whiteSpace=wrap;html=1;" vertex="1" parent="1">
          <mxGeometry x="374" y="530" width="80" height="80" as="geometry" />
        </mxCell>
        <mxCell id="WSUVS9vtkYRrzz9PxhxV-23" value="" style="rounded=0;whiteSpace=wrap;html=1;" vertex="1" parent="1">
          <mxGeometry x="354" y="710" width="120" height="60" as="geometry" />
        </mxCell>
        <mxCell id="WSUVS9vtkYRrzz9PxhxV-26" value="" style="rounded=0;whiteSpace=wrap;html=1;" vertex="1" parent="1">
          <mxGeometry x="760" y="710" width="120" height="60" as="geometry" />
        </mxCell>
        <mxCell id="WSUVS9vtkYRrzz9PxhxV-29" style="edgeStyle=orthogonalEdgeStyle;rounded=0;orthogonalLoop=1;jettySize=auto;html=1;entryX=0.5;entryY=0;entryDx=0;entryDy=0;endArrow=none;endFill=0;" edge="1" parent="1" source="WSUVS9vtkYRrzz9PxhxV-27" target="WSUVS9vtkYRrzz9PxhxV-26">
          <mxGeometry relative="1" as="geometry" />
        </mxCell>
        <mxCell id="WSUVS9vtkYRrzz9PxhxV-27" value="" style="rhombus;whiteSpace=wrap;html=1;" vertex="1" parent="1">
          <mxGeometry x="780" y="530" width="80" height="80" as="geometry" />
        </mxCell>
        <mxCell id="WSUVS9vtkYRrzz9PxhxV-32" style="edgeStyle=orthogonalEdgeStyle;rounded=0;orthogonalLoop=1;jettySize=auto;html=1;entryX=0;entryY=0.5;entryDx=0;entryDy=0;endArrow=none;endFill=0;" edge="1" parent="1" source="WSUVS9vtkYRrzz9PxhxV-30" target="WSUVS9vtkYRrzz9PxhxV-31">
          <mxGeometry relative="1" as="geometry" />
        </mxCell>
        <mxCell id="WSUVS9vtkYRrzz9PxhxV-30" value="" style="rounded=0;whiteSpace=wrap;html=1;" vertex="1" parent="1">
          <mxGeometry x="-40" y="390" width="120" height="60" as="geometry" />
        </mxCell>
        <mxCell id="WSUVS9vtkYRrzz9PxhxV-33" style="edgeStyle=orthogonalEdgeStyle;rounded=0;orthogonalLoop=1;jettySize=auto;html=1;entryX=0;entryY=0.5;entryDx=0;entryDy=0;endArrow=none;endFill=0;" edge="1" parent="1" source="WSUVS9vtkYRrzz9PxhxV-31" target="WSUVS9vtkYRrzz9PxhxV-4">
          <mxGeometry relative="1" as="geometry" />
        </mxCell>
        <mxCell id="WSUVS9vtkYRrzz9PxhxV-31" value="" style="rhombus;whiteSpace=wrap;html=1;" vertex="1" parent="1">
          <mxGeometry x="170" y="380" width="80" height="80" as="geometry" />
        </mxCell>
      </root>
    </mxGraphModel>
  </diagram>
</mxfile>
